PathFileType	4	(X/Y/Z)	/Users/mathieubourgeois/Desktop/Analyse/Traitement/Sujet_08/Transformed_Static_Sujet_08_Tpose.trc
DataRate	CameraRate	NumFrames	NumMarkers	Units	OrigDataRate	OrigDataStartFrame	OrigNumFrames
120.000000	120.000000	4	35	mm	120.000000	162	324
Frame#	Time	RFHD			RANE			STRN			LANI			LKNE			T10			RHUM			RWRB			C7			LFWT			LTOE			LWRA			LBWT			RBWT			RFWT			LKNI			RKNI			RKNE			LANE			RANI			LHEE			RTOE			LHUM			LRAD			RRAD			RWRA			LWRB			LFHD			LBHD			RBHD			RSHO			LSHO			CLAV			LCAR			RCAR			
		X1	Y1	Z1	X2	Y2	Z2	X3	Y3	Z3	X4	Y4	Z4	X5	Y5	Z5	X6	Y6	Z6	X7	Y7	Z7	X8	Y8	Z8	X9	Y9	Z9	X10	Y10	Z10	X11	Y11	Z11	X12	Y12	Z12	X13	Y13	Z13	X14	Y14	Z14	X15	Y15	Z15	X16	Y16	Z16	X17	Y17	Z17	X18	Y18	Z18	X19	Y19	Z19	X20	Y20	Z20	X21	Y21	Z21	X22	Y22	Z22	X23	Y23	Z23	X24	Y24	Z24	X25	Y25	Z25	X26	Y26	Z26	X27	Y27	Z27	X28	Y28	Z28	X29	Y29	Z29	X30	Y30	Z30	X31	Y31	Z31	X32	Y32	Z32	X33	Y33	Z33	X34	Y34	Z34	X35	Y35	Z35	

163	1.35	-826.3856201171875	1617.351806640625	363.1601257324216	-843.7544555664062	82.71467590332033	205.0927429199218	-696.378173828125	1256.336669921875	407.2128295898436	-591.3969116210938	91.9143753051758	232.7217407226562	-527.0906372070312	498.7650451660156	298.6463623046874	-684.7176513671875	1212.415771484375	177.9788513183592	-1096.807250976562	1387.146484375	261.9020080566405	-1344.466796875	1476.703125	254.9591979980466	-688.8284912109375	1470.554077148438	218.7858123779295	-557.5050659179688	968.8817138671875	368.9233398437499	-527.6467895507812	34.58915710449221	399.6497497558593	-26.01023674011233	1412.7431640625	212.5555877685546	-621.5532836914062	1006.518432617188	219.1866607666014	-754.5733032226562	1006.301208496094	220.4639587402342	-794.6992797851562	970.1178588867188	379.6956481933592	-629.6307373046875	438.9798583984375	257.8786010742187	-747.698974609375	433.8520202636719	260.5093994140624	-851.6480712890625	506.383056640625	267.5982971191405	-514.2012329101562	80.64424896240236	191.1441802978515	-764.7273559570312	101.5983200073242	229.6263122558593	-561.73291015625	52.77788543701173	155.0164794921874	-813.6741943359375	37.77883911132815	394.6994628906249	-286.4708862304688	1385.614990234375	265.957061767578	-278.7456665039062	1428.35498046875	200.7634429931639	-1104.3076171875	1423.13037109375	207.2341156005857	-1352.50732421875	1422.246337890625	214.7623748779294	-35.45843124389651	1483.98095703125	236.5072631835937	-719.8771362304688	1627.556030273438	433.3522033691404	-623.0880737304688	1640.227294921875	311.6622314453123	-730.7791137695312	1642.443115234375	225.8803863525389	-800.3906860351562	1473.492919921875	242.4851684570311	-580.0908813476562	1473.901245117188	237.1110687255858	-701.0555419921875	1417.8623046875	345.6971130371091	64.71664428710935	1463.636352539062	204.6248016357421	-1453.260986328125	1452.445068359375	218.7190399169919	
164	1.358333333333333	-825.2081909179688	1616.571411132812	364.3298034667966	-843.7606201171875	82.69354248046876	205.0755157470702	-696.4273681640625	1256.295776367188	406.9664916992186	-591.3974609375	91.90077972412111	232.7155761718749	-527.1082763671875	498.7697448730469	298.6000671386718	-684.7988891601562	1212.36865234375	177.7594451904295	-1096.845336914062	1387.077514648438	261.7080688476561	-1344.55712890625	1476.524047851562	254.7899017333982	-689.003662109375	1470.558959960938	218.5188751220701	-557.5438842773438	968.910888671875	368.7917175292968	-527.6533203125	34.59352874755862	399.6387023925781	-26.05286788940432	1412.875	212.5804901123046	-621.6271362304688	1006.491455078125	219.0632476806639	-754.6668701171875	1006.275207519531	220.3762207031249	-794.7505493164062	970.1236572265625	379.5983581542967	-629.6582641601562	438.9622802734375	257.8675537109374	-747.7330932617188	433.8458557128906	260.4557495117186	-851.6763916015625	506.3744812011719	267.5885925292967	-514.1871337890625	80.64588928222658	191.1658477783203	-764.7324829101562	101.593147277832	229.6277465820312	-561.7361450195312	52.78240966796876	155.0277557373046	-813.674560546875	37.78212356567385	394.684356689453	-286.5470581054688	1385.672973632812	265.8514404296874	-278.8074340820312	1428.401245117188	200.636260986328	-1104.372314453125	1423.05859375	207.0609893798826	-1352.581665039062	1422.056518554688	214.6434936523435	-35.55458450317386	1484.116455078125	236.5094146728515	-717.9293823242188	1627.223754882812	433.6219177246091	-623.06494140625	1640.5517578125	310.412628173828	-732.36376953125	1642.639038085938	226.3423461914061	-800.4513549804688	1473.453491210938	242.2350006103514	-580.1507568359375	1473.908569335938	236.8509063720702	-700.9622192382812	1417.864868164062	345.4378662109373	64.65651702880857	1463.850219726562	204.7211914062499	-1453.346069335938	1452.18896484375	218.5797576904294	
165	1.366666666666667	-824.1204223632812	1615.973999023438	366.1239318847654	-843.754638671875	82.67967987060548	205.0708770751952	-696.4872436523438	1256.260375976562	406.7292480468748	-591.4075927734375	91.89536285400392	232.7134857177734	-527.139404296875	498.7839965820312	298.5774536132811	-684.8861694335938	1212.339965820312	177.5628967285155	-1096.88720703125	1387.007568359375	261.519317626953	-1344.641967773438	1476.325317382812	254.6145019531247	-689.16748046875	1470.5625	218.2685089111326	-557.58740234375	968.91552734375	368.6546936035155	-527.6447143554688	34.57955169677737	399.6318054199218	-26.09084892272952	1413.072998046875	212.618438720703	-621.7177734375	1006.483093261719	218.9230651855467	-754.76806640625	1006.234558105469	220.2875671386717	-794.8057861328125	970.12744140625	379.4956054687498	-629.67529296875	438.9613647460938	257.8402099609374	-747.7660522460938	433.8398742675781	260.4241638183593	-851.7119140625	506.3535461425781	267.5582885742186	-514.1981811523438	80.65041351318361	191.1545257568359	-764.7334594726562	101.5856094360352	229.5840759277343	-561.736328125	52.77645874023438	155.0172424316406	-813.6697998046875	37.77973937988283	394.6723632812499	-286.6177978515626	1385.719848632812	265.7090454101561	-278.8587341308594	1428.460083007812	200.5546722412108	-1104.443725585938	1422.987426757812	206.8591308593748	-1352.652954101562	1421.873901367188	214.4716339111326	-35.64490509033206	1484.274780273438	236.5231781005859	-715.9899291992188	1626.8857421875	433.854309082031	-623.026611328125	1640.8740234375	309.1425476074217	-733.8983154296875	1642.828369140625	226.851119995117	-800.5045166015625	1473.447143554688	242.015655517578	-580.2196044921875	1473.934448242188	236.6559295654295	-700.8696899414062	1417.861083984375	345.1583862304685	64.58329010009763	1464.061279296875	204.7949218749999	-1453.442626953125	1451.95751953125	218.4077453613279	
166	1.375	-823.0579223632812	1615.344848632812	367.8781738281248	-843.76171875	82.65374755859376	205.0604858398436	-696.546875	1256.207641601562	406.4919128417967	-591.4067993164062	91.87852478027345	232.700454711914	-527.1603393554688	498.7891845703125	298.5508728027343	-684.9635620117188	1212.322021484375	177.3605041503905	-1096.933349609375	1386.931030273438	261.3267822265623	-1344.721435546875	1476.174194335938	254.4345245361326	-689.343994140625	1470.564819335938	218.0293121337889	-557.6353759765625	968.9320068359375	368.5286865234374	-527.653076171875	34.58499526977541	399.6346435546874	-26.1574516296387	1413.29833984375	212.6760864257812	-621.8082275390625	1006.450866699219	218.7885894775389	-754.8509521484375	1006.207214355469	220.1672515869139	-794.8687133789062	970.14404296875	379.3878479003905	-629.7163696289062	438.9469299316406	257.8279113769531	-747.798828125	433.8218383789062	260.4086303710936	-851.7432861328125	506.3379516601562	267.5372009277342	-514.1946411132812	80.63923645019533	191.135513305664	-764.7265014648438	101.5745620727539	229.5875091552734	-561.7220458984375	52.76608657836915	155.0261230468749	-813.6712036132812	37.78625488281252	394.6659545898436	-286.6836242675782	1385.780395507812	265.5779724121093	-279.2297973632812	1428.88623046875	200.6033782958983	-1104.5068359375	1422.928466796875	206.6396331787107	-1352.708862304688	1421.724853515625	214.3051147460935	-35.74007797241214	1484.438232421875	236.5426483154296	-714.05810546875	1626.577392578125	434.0409851074216	-623.0613403320312	1641.25830078125	307.9248657226561	-735.5338134765625	1642.990844726562	227.3920745849607	-800.5673217773438	1473.428344726562	241.8002319335936	-580.2777709960938	1473.948974609375	236.4561767578123	-700.7756958007812	1417.856567382812	344.9488830566404	64.54012298583982	1464.265625	204.858917236328	-1453.5087890625	1451.72705078125	218.2068939208982	
